<svg width="32" height="32" viewBox="0 0 32 32" fill="none" xmlns="http://www.w3.org/2000/svg">
<path d="M29.5751 7.20783C29.5751 6.92927 29.4178 6.78999 29.2605 6.65071L16.518 0.104461C16.3607 -0.0348205 16.0461 -0.0348205 15.7314 0.104461L2.83166 6.65071C2.67435 6.78999 2.51703 6.92927 2.51703 7.20783C2.51703 7.4864 2.67435 7.62568 2.83166 7.76496L15.5741 14.3112C15.7314 14.3112 15.8888 14.4505 15.8888 14.4505C15.8888 14.4505 16.2034 14.4505 16.2034 14.3112L28.9459 7.76496C29.4178 7.62568 29.5751 7.34712 29.5751 7.20783V7.20783ZM13.8437 17.654L1.1012 11.1077C0.786572 10.9684 0.471944 10.9684 0.314629 11.1077C0.157315 11.247 0 11.5256 0 11.6649V24.7573C0 25.0359 0.157315 25.1752 0.314629 25.3145L13.0571 31.8607C13.2144 31.8607 13.3717 32 13.3717 32C13.3717 32 13.6864 32 13.6864 31.8607C13.8437 31.7214 14.001 31.5822 14.001 31.3036V18.2111C14.3156 17.9325 14.1583 17.7933 13.8437 17.654V17.654ZM31.7775 11.1077C31.6202 10.9684 31.3056 10.9684 30.991 11.1077L18.2485 17.654C18.0912 17.7933 17.9339 17.9325 17.9339 18.2111V31.3036C17.9339 31.5822 18.0912 31.7214 18.2485 31.8607C18.4058 31.8607 18.5631 32 18.5631 32C18.5631 32 18.8777 32 18.8777 31.8607L31.6202 25.3145C31.7775 25.1752 31.9348 25.0359 31.9348 24.7573V11.6649C32.0922 11.5256 31.9348 11.247 31.7775 11.1077V11.1077Z" fill="#7A8E85"/>
</svg>
