<svg width="52" height="46" viewBox="0 0 52 46" fill="none" xmlns="http://www.w3.org/2000/svg">
<rect x="1.34131" y="0.5" width="49.3731" height="45" rx="4.5" fill="white" stroke="#E5E5E5"/>
<path d="M13.5507 16.0746C16.3364 16.0746 18.5946 14.0432 18.5946 11.5373C18.5946 9.03142 16.3364 7 13.5507 7C10.765 7 8.50671 9.03142 8.50671 11.5373C8.50671 14.0432 10.765 16.0746 13.5507 16.0746Z" fill="#079849" fill-opacity="0.7"/>
<path d="M13.5507 38.9999C16.3364 38.9999 18.5946 36.9685 18.5946 34.4626C18.5946 31.9567 16.3364 29.9253 13.5507 29.9253C10.765 29.9253 8.50671 31.9567 8.50671 34.4626C8.50671 36.9685 10.765 38.9999 13.5507 38.9999Z" fill="#079849" fill-opacity="0.7"/>
<path d="M13.5507 27.5373C16.3364 27.5373 18.5946 25.5058 18.5946 23C18.5946 20.4941 16.3364 18.4626 13.5507 18.4626C10.765 18.4626 8.50671 20.4941 8.50671 23C8.50671 25.5058 10.765 27.5373 13.5507 27.5373Z" fill="#079849" fill-opacity="0.7"/>
<path d="M38.5049 27.0597C41.2906 27.0597 43.5488 25.0283 43.5488 22.5224C43.5488 20.0165 41.2906 17.9851 38.5049 17.9851C35.7192 17.9851 33.4609 20.0165 33.4609 22.5224C33.4609 25.0283 35.7192 27.0597 38.5049 27.0597Z" fill="#079849" fill-opacity="0.7"/>
<path d="M20.9839 11.5374L32.6646 15.3582" stroke="#707070"/>
<path d="M32.2053 27.6064L21.4433 33.1996" stroke="#707070"/>
<path d="M20.4529 22.5225H32.1336" stroke="#707070"/>
</svg>
