<svg width="32" height="32" viewBox="0 0 32 32" fill="none" xmlns="http://www.w3.org/2000/svg">
<path d="M11.2 16.0032H8.00001C7.57566 16.0032 7.1687 16.1717 6.86864 16.4717C6.56858 16.7717 6.40001 17.1786 6.40001 17.6029C6.40001 18.0271 6.56858 18.434 6.86864 18.734C7.1687 19.034 7.57566 19.2025 8.00001 19.2025H11.2C11.6244 19.2025 12.0313 19.034 12.3314 18.734C12.6314 18.434 12.8 18.0271 12.8 17.6029C12.8 17.1786 12.6314 16.7717 12.3314 16.4717C12.0313 16.1717 11.6244 16.0032 11.2 16.0032ZM9.60001 12.8038H16C16.4244 12.8038 16.8313 12.6353 17.1314 12.3353C17.4314 12.0353 17.6 11.6284 17.6 11.2041C17.6 10.7799 17.4314 10.373 17.1314 10.073C16.8313 9.77299 16.4244 9.60445 16 9.60445H9.60001C9.17566 9.60445 8.7687 9.77299 8.46864 10.073C8.16858 10.373 8.00001 10.7799 8.00001 11.2041C8.00001 11.6284 8.16858 12.0353 8.46864 12.3353C8.7687 12.6353 9.17566 12.8038 9.60001 12.8038ZM11.2 22.4019H8.00001C7.57566 22.4019 7.1687 22.5704 6.86864 22.8704C6.56858 23.1704 6.40001 23.5773 6.40001 24.0016C6.40001 24.4259 6.56858 24.8327 6.86864 25.1327C7.1687 25.4327 7.57566 25.6013 8.00001 25.6013H11.2C11.6244 25.6013 12.0313 25.4327 12.3314 25.1327C12.6314 24.8327 12.8 24.4259 12.8 24.0016C12.8 23.5773 12.6314 23.1704 12.3314 22.8704C12.0313 22.5704 11.6244 22.4019 11.2 22.4019ZM30.4 16.0032H25.6V1.60604C25.6011 1.32416 25.5277 1.04699 25.3872 0.802593C25.2468 0.558198 25.0442 0.355256 24.8 0.214317C24.5568 0.0739155 24.2809 0 24 0C23.7191 0 23.4432 0.0739155 23.2 0.214317L18.4 2.96577L13.6 0.214317C13.3568 0.0739155 13.0809 0 12.8 0C12.5191 0 12.2432 0.0739155 12 0.214317L7.20001 2.96577L2.40001 0.214317C2.15678 0.0739155 1.88087 0 1.60001 0C1.31915 0 1.04324 0.0739155 0.800012 0.214317C0.555845 0.355256 0.353263 0.558198 0.212778 0.802593C0.0722924 1.04699 -0.00110669 1.32416 1.26126e-05 1.60604V27.201C1.26126e-05 28.4737 0.505725 29.6944 1.4059 30.5944C2.30607 31.4944 3.52697 32 4.80001 32H27.2C28.473 32 29.6939 31.4944 30.5941 30.5944C31.4943 29.6944 32 28.4737 32 27.201V17.6029C32 17.1786 31.8314 16.7717 31.5314 16.4717C31.2313 16.1717 30.8243 16.0032 30.4 16.0032ZM4.80001 28.8006C4.37566 28.8006 3.9687 28.6321 3.66864 28.3321C3.36858 28.0321 3.20001 27.6252 3.20001 27.201V4.37349L6.40001 6.19713C6.64695 6.32608 6.92142 6.39343 7.20001 6.39343C7.47861 6.39343 7.75307 6.32608 8.00001 6.19713L12.8 3.44567L17.6 6.19713C17.8469 6.32608 18.1214 6.39343 18.4 6.39343C18.6786 6.39343 18.9531 6.32608 19.2 6.19713L22.4 4.37349V27.201C22.4043 27.7467 22.5017 28.2877 22.688 28.8006H4.80001ZM28.8 27.201C28.8 27.6252 28.6314 28.0321 28.3314 28.3321C28.0313 28.6321 27.6243 28.8006 27.2 28.8006C26.7757 28.8006 26.3687 28.6321 26.0686 28.3321C25.7686 28.0321 25.6 27.6252 25.6 27.201V19.2025H28.8V27.201ZM18.496 22.6739C18.4068 22.6133 18.31 22.5649 18.208 22.5299C18.1127 22.4812 18.01 22.4487 17.904 22.4339C17.647 22.3824 17.3812 22.3949 17.1301 22.4702C16.879 22.5455 16.6503 22.6814 16.464 22.8658C16.1716 23.1724 16.0059 23.578 16 24.0016C15.9975 24.2096 16.0355 24.416 16.112 24.6095C16.199 24.8039 16.318 24.9823 16.464 25.1374C16.6195 25.2787 16.7981 25.3923 16.992 25.4733C17.1835 25.5579 17.3906 25.6016 17.6 25.6016C17.8094 25.6016 18.0165 25.5579 18.208 25.4733C18.4019 25.3923 18.5805 25.2787 18.736 25.1374C18.8843 24.9879 19.0016 24.8106 19.0812 24.6157C19.1609 24.4208 19.2012 24.2121 19.2 24.0016C19.1941 23.578 19.0284 23.1724 18.736 22.8658C18.66 22.797 18.5798 22.7329 18.496 22.6739ZM18.72 16.4671C18.5332 16.2852 18.3047 16.1517 18.0545 16.0782C17.8043 16.0048 17.5399 15.9936 17.2844 16.0456C17.0288 16.0977 16.7899 16.2114 16.5884 16.3768C16.3868 16.5423 16.2288 16.7545 16.128 16.995C16.0284 17.2373 15.9899 17.5004 16.0158 17.7611C16.0418 18.0219 16.1313 18.2722 16.2767 18.4902C16.4221 18.7082 16.6188 18.8872 16.8495 19.0114C17.0802 19.1356 17.338 19.2012 17.6 19.2025C18.0244 19.2025 18.4313 19.034 18.7314 18.734C19.0314 18.434 19.2 18.0271 19.2 17.6029C19.1975 17.3938 19.154 17.1873 19.072 16.995C18.9949 16.7953 18.8747 16.615 18.72 16.4671Z" fill="#F8F6F4"/>
</svg>
