<svg width="51" height="46" viewBox="0 0 51 46" fill="none" xmlns="http://www.w3.org/2000/svg">
<rect x="0.281616" width="50.3731" height="46" rx="5" fill="white"/>
<rect x="0.781616" y="0.5" width="49.3731" height="45" rx="4.5" stroke="#079849" stroke-opacity="0.7"/>
<path d="M37.9453 29.9254C35.1596 29.9254 32.9014 31.9568 32.9014 34.4627C32.9014 36.9686 35.1596 39 37.9453 39C40.731 39 42.9893 36.9686 42.9893 34.4627C42.9893 31.9568 40.731 29.9254 37.9453 29.9254Z" fill="#079849" fill-opacity="0.7"/>
<path d="M37.9453 7.00008C35.1596 7.00008 32.9014 9.0315 32.9014 11.5374C32.9014 14.0433 35.1596 16.0747 37.9453 16.0747C40.731 16.0747 42.9893 14.0433 42.9893 11.5374C42.9893 9.0315 40.731 7.00008 37.9453 7.00008Z" fill="#079849" fill-opacity="0.7"/>
<path d="M37.9453 18.4627C35.1596 18.4627 32.9014 20.4942 32.9014 23C32.9014 25.5059 35.1596 27.5374 37.9453 27.5374C40.731 27.5374 42.9893 25.5059 42.9893 23C42.9893 20.4942 40.731 18.4627 37.9453 18.4627Z" fill="#079849" fill-opacity="0.7"/>
<path d="M12.991 18.9403C10.2053 18.9403 7.94708 20.9717 7.94708 23.4776C7.94708 25.9835 10.2053 28.0149 12.991 28.0149C15.7767 28.0149 18.035 25.9835 18.035 23.4776C18.035 20.9717 15.7767 18.9403 12.991 18.9403Z" fill="#079849" fill-opacity="0.7"/>
<path d="M30.5121 34.4626L18.8314 30.6418" stroke="#707070"/>
<path d="M19.2906 18.3936L30.0527 12.8004" stroke="#707070"/>
<path d="M31.0431 23.4775L19.3624 23.4775" stroke="#707070"/>
</svg>
