<svg width="206" height="132" viewBox="0 0 206 132" fill="none" xmlns="http://www.w3.org/2000/svg">
<path d="M168.341 55.55C168.341 55 168.433 54.45 168.433 53.9C168.433 24.1083 144.614 0 115.231 0C94.0335 0 75.8246 12.5583 67.2719 30.7083C63.5473 28.8292 59.3629 27.7292 54.9487 27.7292C41.3839 27.7292 30.0723 37.7667 27.9112 50.875C11.6335 56.4667 0 72.0042 0 90.2917C0 113.3 18.4388 132 41.154 132H88.2857V95.3333H66.1223L103 56.9708L139.878 95.2875H117.714V131.954H168.433C189.217 131.954 206 114.767 206 93.7292C206 72.6917 189.125 55.5958 168.341 55.55Z" fill="#08AE54" fill-opacity="0.7"/>
</svg>
